<svg xmlns="http://www.w3.org/2000/svg" xmlns:xlink="http://www.w3.org/1999/xlink" version="1.1" x="0px" y="0px" viewBox="0 0 100 100" enable-background="new 0 0 100 100" xml:space="preserve"><path d="M75.852,48.767c0.646,0,1.283-0.034,1.914-0.091v27.042h-6.798v15.729L55.239,75.717H5v-49.93h49.878  c-0.057,0.631-0.091,1.27-0.091,1.915c0,0.646,0.034,1.284,0.091,1.915H8.83v42.27h47.995l10.313,10.313V71.887h6.798V48.676  C74.567,48.733,75.205,48.767,75.852,48.767z M95,27.703c0-10.559-8.59-19.149-19.148-19.149c-10.56,0-19.149,8.59-19.149,19.149  c0,10.559,8.59,19.149,19.149,19.149C86.41,46.852,95,38.262,95,27.703z M91.17,27.703c0,8.447-6.872,15.319-15.318,15.319  c-8.447,0-15.319-6.873-15.319-15.319s6.872-15.319,15.319-15.319C84.298,12.384,91.17,19.256,91.17,27.703z M77.766,25.788v-7.391  h-3.829v7.391h-7.393v3.83h7.393v7.391h3.829v-7.391h7.392v-3.83H77.766z"></path></svg>