<svg xmlns="http://www.w3.org/2000/svg" xmlns:xlink="http://www.w3.org/1999/xlink" version="1.1" x="0px" y="0px" viewBox="0 0 100 100" style="enable-background:new 0 0 100 100;" xml:space="preserve"><path d="M50,54.4c9.1,0,17.3-10.7,17.3-22.5c0-12.1-6.3-19.1-17.3-19.1s-17.3,6.9-17.3,19.1  C32.7,43.3,41.2,54.4,50,54.4z M50,16.9c11,0,13.3,8.2,13.3,15.1c0,9.3-6.6,18.5-13.3,18.5c-6.5,0-13.3-9.5-13.3-18.5  C36.7,25.1,39,16.9,50,16.9z"></path><path d="M19.9,79L19.9,79C19.9,79.1,19.9,79.1,19.9,79L19.9,79c0,0.1,0,0.1,0,0.2c0,0.1,0,0.2,0,0.3  c0,0.1,0,0.1,0.1,0.2c0,0.1,0,0.1,0.1,0.2c0,0.1,0.1,0.1,0.1,0.2c0,0.1,0.1,0.1,0.1,0.2c0,0.1,0.1,0.1,0.1,0.1  c0,0.1,0.1,0.1,0.1,0.2c0,0,0.1,0.1,0.1,0.1c0,0,0.1,0.1,0.1,0.1c0.1,0.1,0.2,0.1,0.3,0.1c0,0,0,0,0.1,0c0,0,0,0,0,0c0,0,0,0,0,0  c9.6,4.1,19.2,6.2,28.8,6.2c9.6,0,19.3-2.1,28.8-6.2c0,0,0,0,0,0c0,0,0,0,0,0c0,0,0,0,0.1,0c0.1,0,0.2-0.1,0.3-0.2  c0.1,0,0.1-0.1,0.1-0.1c0.1,0,0.1-0.1,0.1-0.1c0,0,0.1-0.1,0.1-0.2c0,0,0.1-0.1,0.1-0.1c0-0.1,0.1-0.1,0.1-0.2  c0-0.1,0.1-0.1,0.1-0.2c0-0.1,0-0.1,0.1-0.2c0-0.1,0-0.1,0.1-0.2c0-0.1,0-0.2,0-0.3c0,0,0-0.1,0-0.1v0c0,0,0,0,0,0V79  c0-11.9-8.4-21.2-16.2-25.8c-0.6-0.4-1.4-0.4-2,0c-2,1.1-8,4-11.8,4c-3.8,0-9.8-2.9-11.8-4c-0.6-0.3-1.4-0.3-2,0  C28.3,57.8,19.9,67.1,19.9,79z M50,75.4l-2.3-1.9L50,66l2.3,7.5L50,75.4z M37.3,57.2c1.9,1,6.2,3,10.1,3.7l-3.9,12.8c0,0,0,0,0,0  c0,0.1-0.1,0.3-0.1,0.4c0,0.1,0,0.1,0,0.2c0,0.1,0,0.2,0,0.2c0,0.1,0,0.1,0,0.2c0,0.1,0,0.1,0,0.2c0,0.1,0,0.1,0.1,0.2  c0,0.1,0,0.1,0.1,0.2c0,0.1,0.1,0.1,0.1,0.2c0,0,0,0.1,0.1,0.1c0.1,0.1,0.2,0.2,0.3,0.3c0,0,0,0,0,0l4.6,3.8c0,0,0,0,0,0  c0,0,0.1,0,0.1,0.1c0.1,0.1,0.2,0.1,0.2,0.1c0,0,0.1,0,0.1,0.1c0.1,0,0.2,0.1,0.3,0.1c0,0,0.1,0,0.1,0c0.1,0,0.3,0,0.4,0  c0,0,0,0,0,0c0,0,0,0,0,0c0.1,0,0.3,0,0.4,0c0,0,0.1,0,0.1,0c0.1,0,0.2-0.1,0.3-0.1c0,0,0.1,0,0.1-0.1c0.1,0,0.2-0.1,0.2-0.1  c0,0,0.1,0,0.1-0.1c0,0,0,0,0,0l4.6-3.8c0,0,0,0,0,0c0.1-0.1,0.2-0.2,0.3-0.3c0,0,0-0.1,0.1-0.1c0.1-0.1,0.1-0.1,0.1-0.2  c0-0.1,0.1-0.1,0.1-0.2c0-0.1,0.1-0.1,0.1-0.2c0-0.1,0-0.1,0-0.2c0-0.1,0-0.1,0-0.2c0-0.1,0-0.2,0-0.2c0-0.1,0-0.1,0-0.2  c0-0.1,0-0.3-0.1-0.4c0,0,0,0,0,0l-3.9-12.8c3.9-0.7,8.2-2.7,10.1-3.7c6.1,4,12.7,11.4,13.3,20.6c-17.3,7.1-34.8,7.1-52,0  C24.5,68.6,31.2,61.1,37.3,57.2z"></path></svg>