<svg xmlns="http://www.w3.org/2000/svg" xmlns:xlink="http://www.w3.org/1999/xlink" version="1.1" x="0px" y="0px" viewBox="0 0 100 100" style="enable-background:new 0 0 100 100;" xml:space="preserve"><g><path d="M82.416,64.091c-3.495-3.494-8.103-5.46-13.023-5.611c-3.158-7.355-10.382-12.192-18.459-12.192H32.046   c-11.084,0-20.102,9.018-20.102,20.102v12.653c0,1.235,1.002,2.238,2.238,2.238h35.665c0.705,3.794,2.523,7.286,5.311,10.073   c3.639,3.64,8.48,5.645,13.631,5.645c5.148,0,9.991-2.004,13.636-5.645C89.937,83.837,89.933,71.607,82.416,64.091z M16.42,66.389   c0-8.615,7.009-15.625,15.626-15.625h18.888c5.772,0,10.979,3.187,13.689,8.149c-3.557,0.78-6.828,2.544-9.464,5.179   c-3.424,3.423-5.378,7.909-5.603,12.712H16.42V66.389z M79.26,88.188c-2.8,2.796-6.519,4.334-10.472,4.334   c-3.956,0-7.671-1.538-10.464-4.334c-2.798-2.794-4.337-6.511-4.337-10.464s1.539-7.671,4.337-10.467   c2.793-2.793,6.508-4.33,10.464-4.33c3.953,0,7.67,1.537,10.464,4.33C85.023,73.028,85.025,82.417,79.26,88.188z"></path><path d="M75.995,75.483h-4.97v-4.962c0-1.235-1.002-2.238-2.237-2.238c-1.236,0-2.238,1.003-2.238,2.238v4.962h-4.968   c-1.235,0-2.238,1.003-2.238,2.238s1.003,2.238,2.238,2.238h4.968v4.969c0,1.235,1.002,2.238,2.238,2.238   c1.235,0,2.237-1.003,2.237-2.238V79.96h4.97c1.236,0,2.238-1.003,2.238-2.238S77.231,75.483,75.995,75.483z"></path><path d="M41.488,42.4c10.866,0,19.706-8.835,19.706-19.695c0-10.864-8.84-19.703-19.706-19.703   c-10.86,0-19.696,8.839-19.696,19.703C21.792,33.564,30.627,42.4,41.488,42.4z M41.488,7.478c8.397,0,15.229,6.831,15.229,15.227   c0,8.392-6.832,15.219-15.229,15.219c-8.393,0-15.22-6.827-15.22-15.219C26.268,14.309,33.095,7.478,41.488,7.478z"></path></g></svg>