<svg xmlns="http://www.w3.org/2000/svg" xmlns:xlink="http://www.w3.org/1999/xlink" version="1.1" x="0px" y="0px" viewBox="0 0 64 64" enable-background="new 0 0 64 64" xml:space="preserve"><g display="none"><rect x="-28.076" y="-28.113" display="inline" fill="#000000" width="824.576" height="414.113"></rect></g><g display="none"><circle display="inline" fill="#000000" cx="32" cy="32.005" r="32"></circle><polyline display="inline" fill="#000000" points="50.701,51.175 50.701,11.063 16.724,11.063 16.724,56.366 45.51,56.366    45.51,56.366 50.701,51.175  "></polyline><polygon display="inline" fill="#000000" points="43.806,54.667 15,54.667 15,9.333 49,9.333 49,49.472  "></polygon><path display="inline" fill="#000000" d="M25.362,17.109c-3.579,0-6.48,2.901-6.48,6.48c0,3.579,2.901,6.48,6.48,6.48   s6.48-2.901,6.48-6.48h-6.48V17.109z"></path><path display="inline" fill="#000000" d="M26.054,16.417v6.48h6.48C32.533,19.318,29.632,16.417,26.054,16.417z"></path><polygon display="inline" fill="#000000" points="25.572,34.167 22.364,38.066 21.015,36.754 20.126,37.719 22.468,39.997    26.56,35.024  "></polygon><polygon display="inline" fill="#000000" points="25.572,41.753 22.364,45.652 21.015,44.341 20.126,45.305 22.468,47.583    26.56,42.611  "></polygon><line display="inline" fill="#000000" stroke="#DB2B42" stroke-miterlimit="10" x1="35.326" y1="26.738" x2="35.326" y2="29.017"></line><line display="inline" fill="#000000" stroke="#8AD5DD" stroke-miterlimit="10" x1="37.326" y1="21.445" x2="37.326" y2="29.017"></line><line display="inline" fill="#000000" stroke="#DB2B42" stroke-miterlimit="10" x1="39.326" y1="17.598" x2="39.326" y2="29.017"></line><line display="inline" fill="#000000" stroke="#8AD5DD" stroke-miterlimit="10" x1="41.325" y1="21.204" x2="41.325" y2="29.017"></line><line display="inline" fill="#000000" stroke="#DB2B42" stroke-miterlimit="10" x1="43.325" y1="24.881" x2="43.325" y2="29.017"></line><line display="inline" fill="#000000" stroke="#E0E0E0" stroke-miterlimit="10" x1="29.079" y1="35.839" x2="43.874" y2="35.839"></line><line display="inline" fill="#000000" stroke="#E0E0E0" stroke-miterlimit="10" x1="29.079" y1="38.324" x2="43.874" y2="38.324"></line><line display="inline" fill="#000000" stroke="#E0E0E0" stroke-miterlimit="10" x1="29.079" y1="43.426" x2="43.874" y2="43.426"></line><line display="inline" fill="#000000" stroke="#E0E0E0" stroke-miterlimit="10" x1="29.079" y1="45.91" x2="43.874" y2="45.91"></line><polygon display="inline" fill="#000000" points="43.806,54.667 43.806,49.472 49,49.472  "></polygon></g><g display="none"><circle display="inline" fill="#000000" cx="32" cy="32.005" r="32"></circle><polyline display="inline" points="50.701,51.175 50.701,11.063 16.724,11.063 16.724,56.366 45.51,56.366 45.51,56.366    50.701,51.175  "></polyline><polygon display="inline" fill="#000000" points="43.806,54.667 15,54.667 15,9.333 49,9.333 49,49.472  "></polygon><path display="inline" fill="#000000" d="M25.362,17.109c-3.579,0-6.48,2.901-6.48,6.48c0,3.579,2.901,6.48,6.48,6.48   s6.48-2.901,6.48-6.48h-6.48V17.109z"></path><path display="inline" d="M26.054,16.417v6.48h6.48C32.533,19.318,29.632,16.417,26.054,16.417z"></path><polygon display="inline" points="25.572,34.167 22.364,38.066 21.015,36.754 20.126,37.719 22.468,39.997 26.56,35.024  "></polygon><polygon display="inline" points="25.572,41.753 22.364,45.652 21.015,44.341 20.126,45.305 22.468,47.583 26.56,42.611  "></polygon><line display="inline" fill="none" stroke="#000000" stroke-miterlimit="10" x1="35.326" y1="26.738" x2="35.326" y2="29.017"></line><line display="inline" fill="#000000" stroke="#8AD5DD" stroke-miterlimit="10" x1="37.326" y1="21.445" x2="37.326" y2="29.017"></line><line display="inline" fill="none" stroke="#000000" stroke-miterlimit="10" x1="39.326" y1="17.598" x2="39.326" y2="29.017"></line><line display="inline" fill="#000000" stroke="#8AD5DD" stroke-miterlimit="10" x1="41.325" y1="21.204" x2="41.325" y2="29.017"></line><line display="inline" fill="none" stroke="#000000" stroke-miterlimit="10" x1="43.325" y1="24.881" x2="43.325" y2="29.017"></line><line display="inline" fill="#000000" stroke="#E0E0E0" stroke-miterlimit="10" x1="29.079" y1="35.839" x2="43.874" y2="35.839"></line><line display="inline" fill="#000000" stroke="#E0E0E0" stroke-miterlimit="10" x1="29.079" y1="38.324" x2="43.874" y2="38.324"></line><line display="inline" fill="#000000" stroke="#E0E0E0" stroke-miterlimit="10" x1="29.079" y1="43.426" x2="43.874" y2="43.426"></line><line display="inline" fill="#000000" stroke="#E0E0E0" stroke-miterlimit="10" x1="29.079" y1="45.91" x2="43.874" y2="45.91"></line><polygon display="inline" fill="#000000" points="43.806,54.667 43.806,49.472 49,49.472  "></polygon></g><g display="none"><polygon display="inline" fill="#000000" points="37.038,63.995 -3.628,63.995 -3.628,-0.005 44.372,-0.005 44.372,56.662  "></polygon><polygon display="inline" fill="#000000" points="11.297,35.054 6.767,40.559 4.863,38.707 3.608,40.07 6.914,43.285    12.691,36.265  "></polygon><polygon display="inline" fill="#000000" points="11.297,45.764 6.767,51.269 4.863,49.417 3.608,50.779 6.914,53.995    12.691,46.975  "></polygon><path display="inline" fill="#000000" d="M11,9.389c-5.052,0-9.148,4.096-9.148,9.148c0,5.052,4.096,9.148,9.148,9.148   s9.148-4.096,9.148-9.148H11V9.389z"></path><path display="inline" d="M11.977,8.412v9.148h9.148C21.124,12.508,17.029,8.412,11.977,8.412z"></path><rect x="24.362" y="22.984" display="inline" fill="#000000" width="1.412" height="3.217"></rect><rect x="27.184" y="15.511" display="inline" width="1.412" height="10.69"></rect><rect x="30.008" y="10.08" display="inline" fill="#000000" width="1.412" height="16.121"></rect><rect x="32.831" y="15.171" display="inline" width="1.412" height="11.03"></rect><rect x="35.653" y="20.362" display="inline" fill="#000000" width="1.412" height="5.839"></rect><rect x="16.248" y="36.71" display="inline" fill="#000000" width="20.887" height="1.412"></rect><rect x="16.248" y="40.218" display="inline" fill="#000000" width="20.887" height="1.412"></rect><rect x="16.248" y="47.42" display="inline" fill="#000000" width="20.887" height="1.412"></rect><rect x="16.248" y="50.927" display="inline" fill="#000000" width="20.887" height="1.412"></rect><polygon display="inline" fill="#000000" points="37.038,63.995 37.038,56.662 44.372,56.662  "></polygon></g><g display="none"><g display="inline"><polygon points="22.926,35.059 18.396,40.564 16.492,38.712 15.236,40.074 18.543,43.29 24.32,36.27 22.926,35.059   "></polygon></g><g display="inline"><polygon points="22.926,45.769 18.396,51.274 16.492,49.422 15.236,50.784 18.543,54 24.32,46.98 22.926,45.769   "></polygon></g><line display="inline" fill="none" stroke="#000000" stroke-width="1.4" stroke-miterlimit="10" x1="27.876" y1="37.42" x2="48.764" y2="37.42"></line><line display="inline" fill="none" stroke="#000000" stroke-width="1.4" stroke-miterlimit="10" x1="27.876" y1="40.928" x2="48.764" y2="40.928"></line><line display="inline" fill="none" stroke="#000000" stroke-width="1.4" stroke-miterlimit="10" x1="27.876" y1="48.13" x2="48.764" y2="48.13"></line><line display="inline" fill="none" stroke="#000000" stroke-width="1.4" stroke-miterlimit="10" x1="27.876" y1="51.638" x2="48.764" y2="51.638"></line><g display="inline"><path d="M54.6,1.4v54.687L48.087,62.6H9.4V1.4H54.6 M56,0H8v64h40.667L56,56.667V0L56,0z"></path></g><polyline display="inline" fill="none" stroke="#000000" stroke-width="1.4" stroke-miterlimit="10" points="48.179,63.512    48.179,56.179 55.512,56.179  "></polyline><g display="inline"><path d="M21.228,10.334v7.621v1.4h1.4h7.621c-0.661,3.606-3.827,6.348-7.621,6.348c-4.272,0-7.748-3.476-7.748-7.748    C14.881,14.161,17.622,10.995,21.228,10.334 M22.628,8.807c-5.052,0-9.148,4.096-9.148,9.148c0,5.052,4.096,9.148,9.148,9.148    s9.148-4.096,9.148-9.148h-9.148V8.807L22.628,8.807z"></path></g><g display="inline"><path d="M25.005,9.357c3.152,0.578,5.643,3.069,6.221,6.221h-6.221V9.357 M23.605,7.83v9.148h9.148    C32.753,11.926,28.657,7.83,23.605,7.83L23.605,7.83z"></path></g><line display="inline" fill="none" stroke="#000000" stroke-width="1.4" stroke-miterlimit="10" x1="36.696" y1="22.312" x2="36.696" y2="25.529"></line><line display="inline" fill="none" stroke="#000000" stroke-width="1.4" stroke-miterlimit="10" x1="39.519" y1="14.84" x2="39.519" y2="25.529"></line><line display="inline" fill="none" stroke="#000000" stroke-width="1.4" stroke-miterlimit="10" x1="42.342" y1="9.409" x2="42.342" y2="25.529"></line><line display="inline" fill="none" stroke="#000000" stroke-width="1.4" stroke-miterlimit="10" x1="45.165" y1="14.499" x2="45.165" y2="25.529"></line><line display="inline" fill="none" stroke="#000000" stroke-width="1.4" stroke-miterlimit="10" x1="47.988" y1="19.691" x2="47.988" y2="25.529"></line></g><g><path d="M18.354,39.827l-1.882-1.832l-1.933,2.099l4.044,3.934l6.432-7.816l-2.149-1.866L18.354,39.827z M23.625,36.328   l-5.123,6.225l-2.568-2.498l0.578-0.626l1.925,1.873l4.549-5.529L23.625,36.328z"></path><path d="M18.354,50.536l-1.882-1.831l-1.933,2.099l4.044,3.934l6.432-7.816l-2.149-1.866L18.354,50.536z M23.625,47.038   l-5.123,6.225l-2.568-2.498l0.578-0.626l1.925,1.872l4.549-5.528L23.625,47.038z"></path><rect x="27.876" y="36.921" width="20.887" height="1"></rect><rect x="27.876" y="40.429" width="20.887" height="1"></rect><rect x="27.876" y="47.63" width="20.887" height="1"></rect><rect x="27.876" y="51.138" width="20.887" height="1"></rect><path d="M56.311,56.681V-0.25H7.689v64.5h41.053L56.311,56.681z M48.933,62.645v-5.773h5.773L48.933,62.645z M8.689,0.75h46.621   v55.122h-7.378v7.378H8.689V0.75z"></path><path d="M22.628,27.102c5.052,0,9.148-4.096,9.148-9.148h-9.148V8.807c-5.052,0-9.148,4.096-9.148,9.148   S17.576,27.102,22.628,27.102z M21.628,9.868v8.087v1h1h8.087c-0.494,4.023-3.932,7.148-8.087,7.148   c-4.493,0-8.148-3.655-8.148-8.148C14.481,13.8,17.606,10.362,21.628,9.868z"></path><path d="M23.605,7.83v9.148h9.148C32.753,11.926,28.657,7.83,23.605,7.83z M24.605,8.891c3.695,0.454,6.633,3.392,7.087,7.087   h-7.087V8.891z"></path><rect x="36.196" y="22.312" width="1" height="3.217"></rect><rect x="39.019" y="14.84" width="1" height="10.689"></rect><rect x="41.842" y="9.409" width="1" height="16.121"></rect><rect x="44.665" y="14.5" width="1" height="11.03"></rect><rect x="47.488" y="19.691" width="1" height="5.838"></rect></g><g display="none"><circle display="inline" fill="#000000" cx="32" cy="32" r="32"></circle><polygon display="inline" fill="#000000" points="8.75,0.75 55.513,0.75 55.513,56.087 47.479,63.513 8.75,63.513  "></polygon><polygon display="inline" fill="#000000" points="48.344,56.156 48.375,60.6 11.405,60.6 11.405,3.396 52.6,3.396 52.6,56.156  "></polygon><path display="inline" d="M54.6,1.4v54.687L48.087,62.6H9.4V1.4H54.6 M56,0H8v64h40.667L56,56.667V0L56,0z"></path><polygon display="inline" points="48.879,63.513 47.479,63.513 47.479,55.479 55.513,55.479 55.513,56.879 48.879,56.879  "></polygon><polygon display="inline" points="22.926,35.059 18.396,40.564 16.492,38.712 15.236,40.074 18.543,43.29 24.32,36.27    22.926,35.059  "></polygon><polygon display="inline" points="22.926,45.769 18.396,51.274 16.492,49.422 15.236,50.784 18.543,54 24.32,46.98 22.926,45.769     "></polygon><rect x="27.876" y="36.721" display="inline" width="20.887" height="1.4"></rect><rect x="27.876" y="40.229" display="inline" width="20.887" height="1.4"></rect><rect x="27.876" y="47.43" display="inline" width="20.887" height="1.4"></rect><rect x="27.876" y="50.938" display="inline" width="20.887" height="1.4"></rect><path display="inline" d="M21.228,10.334v7.621v1.4h1.4h7.621c-0.661,3.606-3.827,6.348-7.621,6.348   c-4.272,0-7.748-3.476-7.748-7.748C14.881,14.161,17.622,10.995,21.228,10.334 M22.628,8.807c-5.052,0-9.148,4.096-9.148,9.148   c0,5.052,4.096,9.148,9.148,9.148s9.148-4.096,9.148-9.148h-9.148V8.807L22.628,8.807z"></path><path display="inline" d="M25.005,9.357c3.152,0.578,5.643,3.069,6.221,6.221h-6.221V9.357 M23.605,7.83v9.148h9.148   C32.753,11.926,28.657,7.83,23.605,7.83L23.605,7.83z"></path><rect x="35.996" y="22.312" display="inline" width="1.4" height="3.217"></rect><rect x="38.818" y="14.84" display="inline" width="1.4" height="10.689"></rect><rect x="41.642" y="9.409" display="inline" width="1.4" height="16.121"></rect><rect x="44.465" y="14.5" display="inline" width="1.4" height="11.03"></rect><rect x="47.288" y="19.691" display="inline" width="1.4" height="5.838"></rect></g></svg>