<?xml version="1.0" encoding="utf-8"?>
<!-- Generator: Adobe Illustrator 20.0.0, SVG Export Plug-In . SVG Version: 6.00 Build 0)  -->
<svg version="1.1" id="Layer_1" xmlns="http://www.w3.org/2000/svg" xmlns:xlink="http://www.w3.org/1999/xlink" x="0px" y="0px"
	 viewBox="0 0 26 26" style="enable-background:new 0 0 26 26; fill:#70d4e7;" xml:space="preserve">
<g>
	<g>
		<path d="M9,21c-1.7,0-3-1.3-3-3c0-0.3,0.2-0.5,0.5-0.5S7,17.7,7,18c0,1.1,0.9,2,2,2s2-0.9,2-2s-0.9-2-2-2H7.5
			C7.2,16,7,15.8,7,15.5S7.2,15,7.5,15H9c1.1,0,2-0.9,2-2s-0.9-2-2-2s-2,0.9-2,2c0,0.3-0.2,0.5-0.5,0.5S6,13.3,6,13c0-1.7,1.3-3,3-3
			s3,1.3,3,3c0,1-0.5,2-1.3,2.5C11.5,16,12,17,12,18C12,19.7,10.7,21,9,21z"/>
	</g>
	<g>
		<path d="M16.5,21c-0.3,0-0.5-0.2-0.5-0.5v-8.8l-1.1,1.1c-0.2,0.2-0.5,0.2-0.7,0s-0.2-0.5,0-0.7l2-2c0.1-0.1,0.4-0.2,0.5-0.1
			c0.2,0.1,0.3,0.3,0.3,0.5v10C17,20.8,16.8,21,16.5,21z"/>
	</g>
	<g>
		<path d="M20.5,24h-17C1.6,24,0,22.4,0,20.5v-15C0,3.6,1.6,2,3.5,2C3.8,2,4,2.2,4,2.5S3.8,3,3.5,3C2.1,3,1,4.1,1,5.5v15
			C1,21.9,2.1,23,3.5,23h17c1.4,0,2.5-1.1,2.5-2.5v-15C23,4.1,21.9,3,20.5,3C20.2,3,20,2.8,20,2.5S20.2,2,20.5,2
			C22.4,2,24,3.6,24,5.5v15C24,22.4,22.4,24,20.5,24z"/>
	</g>
	<g>
		<path d="M16.5,3h-9C7.2,3,7,2.8,7,2.5S7.2,2,7.5,2h9C16.8,2,17,2.2,17,2.5S16.8,3,16.5,3z"/>
	</g>
	<g>
		<path d="M5.5,5C5.2,5,5,4.8,5,4.5v-4C5,0.2,5.2,0,5.5,0S6,0.2,6,0.5v4C6,4.8,5.8,5,5.5,5z"/>
	</g>
	<g>
		<path d="M18.5,5C18.2,5,18,4.8,18,4.5v-4C18,0.2,18.2,0,18.5,0S19,0.2,19,0.5v4C19,4.8,18.8,5,18.5,5z"/>
	</g>
	<g>
		<path d="M23.5,8h-23C0.2,8,0,7.8,0,7.5S0.2,7,0.5,7h23C23.8,7,24,7.2,24,7.5S23.8,8,23.5,8z"/>
	</g>
</g>
</svg>
