<?xml version="1.0" encoding="utf-8"?>
<!-- Generator: Adobe Illustrator 20.0.0, SVG Export Plug-In . SVG Version: 6.00 Build 0)  -->
<svg version="1.1" id="Layer_1" xmlns="http://www.w3.org/2000/svg" xmlns:xlink="http://www.w3.org/1999/xlink" x="0px" y="0px"
	 viewBox="0 0 60 65" style="enable-background:new 0 0 60 60; fill:#71cafa" xml:space="preserve">
	 <style type="text/css">
		.st0{stroke:#5b9dc5;stroke-miterlimit:10;}
	</style>
<path class="st0" d="M52.7,12.3l-5-5c-0.4-0.4-1-0.4-1.4,0l-22,22c-0.1,0.1-0.2,0.3-0.3,0.5l-1,6c-0.1,0.3,0.1,0.6,0.3,0.9
	c0.2,0.2,0.4,0.3,0.7,0.3c0.1,0,0.1,0,0.2,0l6-1c0.2,0,0.4-0.1,0.5-0.3l22-22C53.1,13.3,53.1,12.7,52.7,12.3z M29.5,34.1l-4.3,0.7
	l0.7-4.3l1.1-1.1l3.6,3.6L29.5,34.1z M32,31.6L28.4,28L47,9.4l3.6,3.6L32,31.6z M47,22.3V44c0,1.7-1.3,3-3,3H16c-1.7,0-3-1.3-3-3V16
	c0-1.7,1.3-3,3-3h21.8l-2,2H16c-0.6,0-1,0.4-1,1v28c0,0.6,0.4,1,1,1h28c0.6,0,1-0.4,1-1V24.3L47,22.3z"/>
</svg>
