<?xml version="1.0" encoding="utf-8"?>
<!-- Generator: Adobe Illustrator 20.0.0, SVG Export Plug-In . SVG Version: 6.00 Build 0)  -->
<svg version="1.1" id="Layer_1" xmlns="http://www.w3.org/2000/svg" xmlns:xlink="http://www.w3.org/1999/xlink" x="0px" y="0px"
	 viewBox="20 16 60 65" style="enable-background:new 0 0 100 100; fill:#5b9dc5;" xml:space="preserve">
<g>
	<path d="M60.8,53.4c5.7-3.5,9.6-9.8,9.6-17c0-11-9-20-20-20c-10.3,0-18.8,7.9-19.9,17.9c-0.2,0.3-0.3,0.7-0.3,1.1
		c0,0.3,0.1,0.6,0.2,0.9v0.1c0,7.3,3.9,13.6,9.7,17.1c-12.4,2.8-19.7,11.1-19.7,22.9c0,1.1,0.9,2,2,2h21.3l5.4,4.7
		c0.4,0.3,0.8,0.5,1.3,0.5s0.9-0.2,1.3-0.5l5.4-4.7h22.3c1.1,0,2-0.9,2-2C81.4,64.5,73.7,56.2,60.8,53.4z M51.7,56.4l-1.3,2.1
		l-1.3-2.1c0.4,0,0.9,0,1.3,0S51.3,56.4,51.7,56.4z M66.1,33.4h-1.8c-6,0-10.4-1.5-13-4.5c-2.4-2.7-2.9-6.2-3-8c0-0.1,0-0.2,0-0.4
		c0.7-0.1,1.4-0.2,2.1-0.2C58.2,20.4,64.7,26,66.1,33.4z M44.2,21.7c-0.8,8.2-6.1,10.7-9.4,11.4C35.8,27.9,39.4,23.7,44.2,21.7z
		 M34.4,37.2c4.1-0.6,9.2-2.9,11.9-8.4c0.5,0.9,1.1,1.8,1.9,2.7c3.5,3.9,8.9,5.9,16,5.9h2.1c-0.5,8.4-7.5,15-15.9,15
		C41.8,52.4,34.9,45.7,34.4,37.2z M44.5,56.8l3.4,5.3L43,74.4H24.4C25.3,64.6,32.6,58.3,44.5,56.8z M50.4,78.9l-3.6-3.1l3.6-9.1
		l3.6,9.1L50.4,78.9z M57.7,74.4l-4.9-12.3l3.4-5.3c10.4,1.3,20,6.5,21,17.6L57.7,74.4L57.7,74.4z"/>
	<path d="M68,66.4h-7c-1.1,0-2,0.9-2,2s0.9,2,2,2h7c1.1,0,2-0.9,2-2S69.1,66.4,68,66.4z"/>
</g>
</svg>
