<svg xmlns="http://www.w3.org/2000/svg" data-name="Layer 1" viewBox="0 0 100 100" style="fill:#5b9dc5;" x="0px" y="0px"><title>big4_outline</title>
<style type="text/css">
	.st0{stroke:#5b9dc5;stroke-miterlimit:10;}
</style>
<path  class="st0" d="M31,21a2,2,0,0,1,2-2H67.25a2,2,0,0,1,0,4H33A2,2,0,0,1,31,21Zm59.67-2H83.13a2,2,0,0,0,0,4h5.54V82H11.33V23h5.23a2,2,0,0,0,0-4H9.33a2,2,0,0,0-2,2V84a2,2,0,0,0,2,2H90.67a2,2,0,0,0,2-2V21A2,2,0,0,0,90.67,19ZM24.83,28.17a2,2,0,0,0,2-2V16a2,2,0,1,0-4,0V26.17A2,2,0,0,0,24.83,28.17Zm50,0a2,2,0,0,0,2-2V16a2,2,0,0,0-4,0V26.17A2,2,0,0,0,74.83,28.17ZM38.38,70a2,2,0,0,0,2.83,0L71.29,39.87A2,2,0,0,0,68.46,37L39.79,65.71l-8.25-8.25a2,2,0,0,0-2.83,2.83Z"></path></svg>