<?xml version="1.0" encoding="utf-8"?>
<!-- Generator: Adobe Illustrator 20.0.0, SVG Export Plug-In . SVG Version: 6.00 Build 0)  -->
<svg version="1.1" id="Layer_1" xmlns="http://www.w3.org/2000/svg" xmlns:xlink="http://www.w3.org/1999/xlink" x="0px" y="0px"
	 viewBox="0 0 32 32" style="enable-background:new 0 0 32 32; fill:#5b9dc5;" xml:space="preserve">
<g>
	<path d="M18,32H2c-1.3,0-2-1-2-2V2c0-1.3,1-2,2-2h15c0.1,0,1.5,0,2.7,1.3l7,7C28,9.6,28,10.9,28,11v5c0,0.5-0.5,1-1,1s-1-0.5-1-1
		v-5c0,0,0-0.6-0.7-1.3l-7-7C17.6,2,17,2,17,2H2v28h16c0.5,0,1,0.5,1,1S18.5,32,18,32z"/>
	<path d="M23,12h-5c-1.3,0-2-1-2-2V1c0-0.6,0.5-1,1-1s1,0.4,1,1v9h5c0.5,0,1,0.4,1,1S23.5,12,23,12z"/>
	<path d="M25,32c-3.9,0-7-3.1-7-7s3.1-7,7-7s7,3.1,7,7S28.9,32,25,32z M25,20c-2.8,0-5,2.2-5,5s2.2,5,5,5s5-2.2,5-5S27.8,20,25,20z"
		/>
	<path d="M25,28c-0.3,0-0.5-0.1-0.7-0.3l-2-2c-0.4-0.4-0.4-1,0-1.4l2-2c0.4-0.4,1-0.4,1.4,0s0.4,1,0,1.4L24.4,25l1.3,1.3
		c0.4,0.4,0.4,1,0,1.4C25.5,27.9,25.3,28,25,28z"/>
	<path d="M27,26h-4c-0.5,0-1-0.5-1-1s0.5-1,1-1h4c0.5,0,1,0.5,1,1S27.5,26,27,26z"/>
</g>
</svg>
