<svg xmlns:dc="http://purl.org/dc/elements/1.1/" xmlns:cc="http://creativecommons.org/ns#" xmlns:rdf="http://www.w3.org/1999/02/22-rdf-syntax-ns#" xmlns:svg="http://www.w3.org/2000/svg" xmlns="http://www.w3.org/2000/svg" xmlns:sodipodi="http://sodipodi.sourceforge.net/DTD/sodipodi-0.dtd" xmlns:inkscape="http://www.inkscape.org/namespaces/inkscape" version="1.1" x="0px" y="0px" viewBox="0 0 100 100"><g transform="translate(0,-952.36218)"><path style="text-indent:0;text-transform:none;direction:ltr;block-progression:tb;baseline-shift:baseline;color:#FFF;enable-background:accumulate;" d="M 12.8125,11 C 11.829332,11.092661 10.995742,12.012485 11,13 l 0,74 c 1.04e-4,1.047169 0.952831,1.999896 2,2 l 74,0 c 1.047169,-1.04e-4 1.999896,-0.952831 2,-2 l 0,-60 c 0.0041,-0.532455 -0.215129,-1.063107 -0.59375,-1.4375 l -14,-14 C 74.034102,11.202508 73.517756,10.99597 73,11 l -60,0 c -0.06245,-0.0029 -0.125046,-0.0029 -0.1875,0 z M 15,15 l 11,0 0,22 c 1.05e-4,1.047169 0.952831,1.999895 2,2 l 44,0 c 1.047169,-1.05e-4 1.999895,-0.952831 2,-2 l 0,-20.1875 11,11 L 85,85 74,85 74,63 c -1.05e-4,-1.047169 -0.952831,-1.999895 -2,-2 L 28,61 C 27.93755,60.9971 27.874954,60.9971 27.8125,61 26.829332,61.09266 25.995742,62.012485 26,63 l 0,22 -11,0 z m 15,0 40,0 0,20 -40,0 z m 0,50 40,0 0,20 -40,0 z" transform="translate(0,952.36218)" fill="#FFF" fill-opacity="1" stroke="none" marker="none" visibility="visible" display="inline" overflow="visible"></path></g></svg>