<svg xmlns="http://www.w3.org/2000/svg" xmlns:xlink="http://www.w3.org/1999/xlink" version="1.1" x="0px" y="0px" viewBox="0 0 100 100" enable-background="new 0 0 100 100" style="fill:#999;" xml:space="preserve"><path d="M77.93,22.78h-9.722v-3.026c0-4.136-3.364-7.5-7.5-7.5H39.291c-4.136,0-7.5,3.364-7.5,7.5v3.026H22.07  c-1.381,0-2.5,1.119-2.5,2.5s1.119,2.5,2.5,2.5H77.93c1.381,0,2.5-1.119,2.5-2.5S79.311,22.78,77.93,22.78z M63.208,22.78H36.791  v-3.026c0-1.379,1.121-2.5,2.5-2.5h21.417c1.379,0,2.5,1.121,2.5,2.5V22.78z M73.27,30.126c-1.381,0-2.5,1.119-2.5,2.5v47.411  c0,1.494-1.214,2.709-2.705,2.709H31.938c-1.494,0-2.709-1.215-2.709-2.709V32.626c0-1.381-1.119-2.5-2.5-2.5s-2.5,1.119-2.5,2.5  v47.411c0,4.252,3.458,7.709,7.709,7.709h36.126c4.249,0,7.705-3.457,7.705-7.709V32.626C75.77,31.246,74.65,30.126,73.27,30.126z"></path></svg>