<svg id="Layer_1" data-name="Layer 1" xmlns="http://www.w3.org/2000/svg" viewBox="0 0 28.63 36.38"><defs><style>.cls-1{fill:#fff;stroke-width:0.25px;}.cls-1,.cls-2,.cls-3,.cls-4{stroke:#fff;stroke-miterlimit:10;}.cls-1,.cls-2,.cls-3{isolation:isolate;}.cls-2,.cls-3,.cls-4{fill:none;}.cls-3{stroke-width:1.5px;}</style></defs><title>reports_white</title><path class="cls-1" d="M23.47,16.85a6.08,6.08,0,0,0,6.13-6H23.47v-6a6.08,6.08,0,0,0-6.13,6A6.07,6.07,0,0,0,23.47,16.85ZM22.8,5.51v6h6.09A5.46,5.46,0,0,1,18,10.83,5.4,5.4,0,0,1,22.8,5.51Z" transform="translate(-4.5 -0.77)"/><path class="cls-1" d="M24.12,4.17v6h6.13A6.08,6.08,0,0,0,24.12,4.17Zm.67.7a5.42,5.42,0,0,1,4.75,4.66H24.79Z" transform="translate(-4.5 -0.77)"/><polygon class="cls-2" points="10 0.5 28.13 0.5 28.13 35.88 0.5 35.88 0.5 10.07 10 0.5"/><polyline class="cls-2" points="0.5 10.07 10.38 10.07 10.38 0.21"/><line class="cls-3" x1="14.5" y1="20.78" x2="25.1" y2="20.78"/><line class="cls-3" x1="14.5" y1="26.13" x2="25.1" y2="26.13"/><line class="cls-3" x1="14.5" y1="30.88" x2="25.1" y2="30.88"/><line class="cls-4" x1="11.38" y1="18.24" x2="11.38" y2="30.88"/><line class="cls-4" x1="7.63" y1="23.29" x2="7.63" y2="30.88"/><line class="cls-4" x1="4.13" y1="26.89" x2="4.13" y2="30.88"/></svg>