<?xml version="1.0" encoding="utf-8"?>
<!-- Generator: Adobe Illustrator 20.0.0, SVG Export Plug-In . SVG Version: 6.00 Build 0)  -->
<svg version="1.1" id="Layer_1" xmlns="http://www.w3.org/2000/svg" xmlns:xlink="http://www.w3.org/1999/xlink" x="0px" y="0px"
	 viewBox="10 23 80 52" style="enable-background:new 0 0 60 60; fill:#5b9dc5;" xml:space="preserve">
<style type="text/css">
	.st0{stroke:#5b9dc5;stroke-miterlimit:10;}
</style>
<g>
	<path class="st0" d="M56.9,52.9c-0.3,0-0.5,0.1-0.7,0.3l0,0c0,0-2.2,2.1-5.7,2.1s-5.7-2-5.7-2.1l0,0c-0.2-0.2-0.4-0.3-0.7-0.3
		c-4.3,0-7.7,1.4-10.1,4.2c-5,5.8-3.7,15.5-3.6,15.9c0.1,0.5,0.5,0.9,1,0.9h38.3c0.5,0,0.9-0.4,1-0.9c0.1-0.4,1.4-10.1-3.6-15.9
		C64.6,54.3,61.2,52.9,56.9,52.9z M54.6,56.5l-4,8.3l-4-8.3c1.1,0.4,2.4,0.8,4,0.8S53.5,56.9,54.6,56.5z M68.8,71.9H32.3
		c-0.2-2.4-0.4-9.3,3.3-13.4c1.9-2.2,4.6-3.3,8-3.5l6.1,12.6c0.3,0.7,1.5,0.7,1.8,0l6-12.6c3.4,0.1,6.1,1.3,8,3.5
		C69.1,62.6,69,69.5,68.8,71.9z"/>
	<path class="st0" d="M50.5,50.6c6.1,0,11-4.9,11-11s-4.9-11-11-11s-11,4.9-11,11S44.5,50.6,50.5,50.6z M50.5,30.6c5,0,9,4,9,9
		s-4,9-9,9s-9-4-9-9S45.6,30.6,50.5,30.6z"/>
	<path class="st0" d="M84.9,46.8c-1.7-2-4.2-3-7.4-3c-0.1,0-0.2,0-0.3,0.1c0,0,0,0-0.1,0s-0.2,0.1-0.3,0.2l0,0
		c-0.1,0.1-1.5,1.4-3.8,1.4c-2.4,0-3.8-1.3-3.8-1.4l0,0C69.1,44,69,44,69,43.9h-0.1c-0.1,0-0.2-0.1-0.3-0.1l0,0l0,0
		c-4.8,0-8,2.4-9.4,6.8c-0.2,0.5,0.1,1.1,0.7,1.3c0.5,0.2,1.1-0.1,1.3-0.7c1.1-3.4,3.4-5.2,6.9-5.4l4.2,8.8c0.3,0.7,1.5,0.7,1.8,0
		l4.2-8.8c2.2,0.1,4,0.9,5.2,2.3c2.4,2.7,2.4,7.2,2.3,9H71.5c-0.6,0-1,0.4-1,1s0.4,1,1,1h15.1c0.5,0,0.9-0.4,1-0.9
		C87.6,58,88.6,51,84.9,46.8z M73.1,51.8l-2.3-4.7c0.7,0.2,1.4,0.3,2.3,0.3s1.6-0.1,2.3-0.3L73.1,51.8z"/>
	<path class="st0" d="M73.1,42.7c4.4,0,8.1-3.6,8.1-8.1s-3.6-8.1-8.1-8.1S65,30.2,65,34.7S68.6,42.7,73.1,42.7z M73.1,28.6
		c3.3,0,6.1,2.7,6.1,6.1s-2.7,6.1-6.1,6.1S67,38,67,34.7S69.7,28.6,73.1,28.6z"/>
	<path class="st0" d="M30.6,58.2c0-0.6-0.4-1-1-1H15.4c-0.1-1.9-0.1-6.3,2.3-9c1.2-1.4,3-2.2,5.2-2.3l4.2,8.8c0.3,0.7,1.5,0.7,1.8,0
		l4.2-8.8c3.5,0.2,5.8,2,6.9,5.4c0.2,0.5,0.7,0.8,1.3,0.7c0.5-0.2,0.8-0.7,0.7-1.3c-1.4-4.5-4.6-6.8-9.4-6.8l0,0l0,0
		c-0.1,0-0.2,0-0.3,0.1h-0.1c-0.1,0-0.2,0.1-0.2,0.2l0,0c0,0-1.5,1.4-3.8,1.4s-3.7-1.3-3.8-1.4l0,0c-0.1-0.1-0.2-0.1-0.2-0.2h-0.1
		c-0.1,0-0.2-0.1-0.3-0.1l0,0l0,0c-3.1,0-5.6,1-7.4,3C12.5,51,13.5,58,13.5,58.3c0.1,0.5,0.5,0.9,1,0.9h15.1
		C30.1,59.2,30.6,58.7,30.6,58.2z M30.3,47.1L28,51.8l-2.3-4.7c0.7,0.2,1.4,0.3,2.3,0.3C28.9,47.5,29.6,47.3,30.3,47.1z"/>
	<path class="st0" d="M28,42.7c4.4,0,8.1-3.6,8.1-8.1s-3.6-8.1-8.1-8.1s-8.1,3.6-8.1,8.1S23.6,42.7,28,42.7z M28,28.6
		c3.3,0,6.1,2.7,6.1,6.1s-2.7,6.1-6.1,6.1s-6.1-2.7-6.1-6.1S24.7,28.6,28,28.6z"/>
</g>
</svg>
