<?xml version="1.0" encoding="utf-8"?>
<!-- Generator: Adobe Illustrator 20.0.0, SVG Export Plug-In . SVG Version: 6.00 Build 0)  -->
<svg version="1.1" id="Layer_1" xmlns="http://www.w3.org/2000/svg" xmlns:xlink="http://www.w3.org/1999/xlink" x="0px" y="0px"
	 viewBox="20 37 110 100" style="enable-background:new 0 0 100 100; fill:#5b9dc5;" xml:space="preserve">
<path d="M101.7,39H61.2c-6.9,0-12.6,5.6-12.6,12.6v70.7c0,6.9,5.6,12.6,12.6,12.6h51.6c6.9,0,12.6-5.6,12.6-12.6V65.5L101.7,39z
	 M103.3,49.9l12.3,13.8h-12.3V49.9z M119.4,122.4c0,3.6-3,6.6-6.6,6.6H61.2c-3.6,0-6.6-3-6.6-6.6V51.6c0-3.6,3-6.6,6.6-6.6h36.1
	v24.6h22L119.4,122.4z"/>
<polygon points="92,72.6 75.3,89.3 75.3,89.3 75.3,89.3 75.2,89.3 75.3,89.4 72.6,101.4 84.6,98.7 84.7,98.8 84.7,98.7 84.7,98.7 
	84.7,98.7 101.4,82 "/>
<path d="M79.9,84.6l9.4,9.4l4.3-4.3c0.5-0.5,0.5-1.4,0-2l-7.5-7.5c-0.5-0.5-1.4-0.5-2,0L79.9,84.6z"/>
</svg>
